<svg xmlns="http://www.w3.org/2000/svg" id="Layer_1" data-name="Layer 1" viewBox="0 0 110 30" style="width: 110px; height: 30px;" width="110" height="30"><defs><style>.cls-1{fill:#0a4e9b;}</style></defs><title>Artboard 1</title><path class="cls-1" d="M16.43,25V15.33H7.72V25H5V5H5A2.73,2.73,0,0,1,7.72,7.73V13h8.71V7.73A2.73,2.73,0,0,1,19.15,5h0V25Z"></path><path class="cls-1" d="M24.78,7.53V22.47A2.52,2.52,0,0,0,27.3,25h7.84a2.52,2.52,0,0,0,2.51-2.52V7.53A2.52,2.52,0,0,0,35.14,5H27.3A2.52,2.52,0,0,0,24.78,7.53ZM27.5,21.35V7.46h6a1.47,1.47,0,0,1,1.47,1.47V21.24a1.3,1.3,0,0,1-1.3,1.3H28.69A1.19,1.19,0,0,1,27.5,21.35Z"></path><path class="cls-1" d="M46.06,7.46V13h7a2.32,2.32,0,0,1-2.31,2.32H46.06V25H43.34V5H55.65A2.45,2.45,0,0,1,53.2,7.46Z"></path><path class="cls-1" d="M62,7.46V13h7a2.32,2.32,0,0,1-2.31,2.32H62V25H59.27V5H71.58a2.45,2.45,0,0,1-2.45,2.46Z"></path><path class="cls-1" d="M78.85,7.46V13h6.58a2.32,2.32,0,0,1-2.31,2.32H78.85v7.21h9V25H76.13V5H88a2.45,2.45,0,0,1-2.45,2.46Z"></path><path class="cls-1" d="M95.82,7.46V13h6.58a2.32,2.32,0,0,1-2.31,2.32H95.82v7.21h9V25H93.1V5H105a2.45,2.45,0,0,1-2.45,2.46Z"></path></svg>