<svg width="21" height="19" viewBox="0 0 21 19" xmlns="http://www.w3.org/2000/svg"><path d="M15.867 15.713a.836.836 0 1 0 .835.835.836.836 0 0 0-.835-.835m0 2.616c-.982 0-1.782-.799-1.782-1.781 0-.983.8-1.783 1.782-1.783.983 0 1.782.8 1.782 1.783 0 .982-.8 1.781-1.782 1.781M17.206 13.44H7.066M7.08 13.914h10.126a.474.474 0 0 0 0-.948H7.428L4.166.825A.473.473 0 0 0 3.71.474H.474a.474.474 0 0 0 0 .947h2.872l3.26 12.133a.473.473 0 0 0 .474.36z"/><path d="M6.712 10.295h11.113l1.706-6.303H5.016l1.696 6.303zm11.475.947H6.349a.474.474 0 0 1-.458-.35L3.941 3.64a.475.475 0 0 1 .457-.597H20.15a.474.474 0 0 1 .457.597l-1.963 7.251a.474.474 0 0 1-.457.35zM8.998 15.713a.836.836 0 1 0 .835.835.836.836 0 0 0-.835-.835m0 2.616c-.983 0-1.782-.799-1.782-1.781 0-.983.8-1.783 1.782-1.783.983 0 1.782.8 1.782 1.783 0 .982-.8 1.781-1.782 1.781M10.828 10.461L8.68 3.698"/><path d="M10.828 10.935a.474.474 0 0 1-.451-.33L8.227 3.84a.473.473 0 1 1 .904-.286l2.149 6.763a.474.474 0 0 1-.452.617M16.234 10.461l-2.149-6.763M16.234 10.935a.474.474 0 0 1-.452-.33L13.633 3.84a.473.473 0 1 1 .903-.286l2.15 6.763a.474.474 0 0 1-.452.617"/></svg>