<svg id="Layer_1" data-name="Layer 1" xmlns="http://www.w3.org/2000/svg" viewBox="0 0 1190.55 396.85"><defs><style>.cls-1{fill:none;}.cls-2{fill:#3155a6;}</style></defs><title>Artboard 9</title><rect class="cls-1" width="1190.55" height="396.85"/><path class="cls-2" d="M99.21,99.21h0a25.51,25.51,0,0,1,25.51,25.51V297.64a0,0,0,0,1,0,0H99.21a0,0,0,0,1,0,0V99.21A0,0,0,0,1,99.21,99.21Z"/><path class="cls-2" d="M240.94,99.21h0a0,0,0,0,1,0,0V297.64a0,0,0,0,1,0,0H215.43a0,0,0,0,1,0,0V124.72A25.51,25.51,0,0,1,240.94,99.21Z"/><rect class="cls-2" x="99.21" y="179.33" width="141.73" height="25.51"/><path class="cls-2" d="M615.12,99.21H501.73V297.64h25.51V202h34a25.51,25.51,0,0,0,25.51-25.51H527.24V124.72h62.36A25.51,25.51,0,0,0,615.12,99.21Z"/><path class="cls-2" d="M771,99.21H657.64V297.64h25.51V202h34a25.51,25.51,0,0,0,25.51-25.51H683.15V124.72h62.36A25.51,25.51,0,0,0,771,99.21Z"/><rect class="cls-2" x="813.54" y="99.21" width="25.51" height="198.43"/><path class="cls-2" d="M813.54,176.49h85a0,0,0,0,1,0,0v0A25.51,25.51,0,0,1,873.07,202H813.54a0,0,0,0,1,0,0V176.49A0,0,0,0,1,813.54,176.49Z"/><path class="cls-2" d="M813.54,99.21H926.93a0,0,0,0,1,0,0v0a25.51,25.51,0,0,1-25.51,25.51H813.54a0,0,0,0,1,0,0V99.21A0,0,0,0,1,813.54,99.21Z"/><path class="cls-2" d="M813.54,272.13h87.87a25.51,25.51,0,0,1,25.51,25.51v0a0,0,0,0,1,0,0H813.54a0,0,0,0,1,0,0V272.13A0,0,0,0,1,813.54,272.13Z"/><rect class="cls-2" x="977.95" y="99.21" width="25.51" height="198.43"/><path class="cls-2" d="M978,176.49h85a0,0,0,0,1,0,0v0A25.51,25.51,0,0,1,1037.48,202H978a0,0,0,0,1,0,0V176.49A0,0,0,0,1,978,176.49Z"/><path class="cls-2" d="M978,99.21h113.39a0,0,0,0,1,0,0v0a25.51,25.51,0,0,1-25.51,25.51H978a0,0,0,0,1,0,0V99.21a0,0,0,0,1,0,0Z"/><path class="cls-2" d="M978,272.13h87.87a25.51,25.51,0,0,1,25.51,25.51v0a0,0,0,0,1,0,0H978a0,0,0,0,1,0,0V272.13A0,0,0,0,1,978,272.13Z"/><path class="cls-2" d="M416.69,99.21H326a25.51,25.51,0,0,0-25.51,25.51h0v147.4h0A25.51,25.51,0,0,0,326,297.64h90.71a25.51,25.51,0,0,0,25.51-25.51h0V124.72h0a25.51,25.51,0,0,0-25.51-25.51ZM403.94,272.13h-65.2A12.76,12.76,0,0,1,326,259.37V137.48a12.76,12.76,0,0,1,12.76-12.76h65.2a12.76,12.76,0,0,1,12.76,12.76V259.37A12.76,12.76,0,0,1,403.94,272.13Z"/></svg>