<svg id="Layer_1" data-name="Layer 1" xmlns="http://www.w3.org/2000/svg" viewBox="0 0 1388.98 1388.98"><defs><style>.cls-1{fill:#3155a6;}</style></defs><title>Artboard 1</title><path class="cls-1" d="M198.43,595.29h0a25.51,25.51,0,0,1,25.51,25.51h0V793.72H198.43V595.29Z"/><path class="cls-1" d="M340.16,595.29h0V793.73H314.65V620.8a25.51,25.51,0,0,1,25.51-25.51Z"/><rect class="cls-1" x="198.43" y="675.4" width="141.73" height="25.51"/><path class="cls-1" d="M714.33,595.29H601V793.73h25.51V698.09h34A25.51,25.51,0,0,0,686,672.61v0H626.46V620.8h62.36a25.51,25.51,0,0,0,25.51-25.51Z"/><path class="cls-1" d="M870.24,595.29H756.85V793.73h25.51V698.09h34a25.51,25.51,0,0,0,25.51-25.51H782.36V620.8h62.36a25.51,25.51,0,0,0,25.52-25.5Z"/><rect class="cls-1" x="912.76" y="595.29" width="25.51" height="198.43"/><path class="cls-1" d="M912.76,672.58h85a25.51,25.51,0,0,1-25.51,25.51H912.76V672.58Z"/><path class="cls-1" d="M912.76,595.29h113.39a25.51,25.51,0,0,1-25.51,25.51H912.76V595.29Z"/><path class="cls-1" d="M912.76,768.16h87.87a25.51,25.51,0,0,1,25.51,25.51H912.76V768.16Z"/><rect class="cls-1" x="1077.17" y="595.29" width="25.51" height="198.43"/><path class="cls-1" d="M1077.17,672.58h85a25.51,25.51,0,0,1-25.51,25.51h-59.53V672.58Z"/><path class="cls-1" d="M1077.17,595.29h113.39a25.51,25.51,0,0,1-25.51,25.51h-87.87V595.29Z"/><path class="cls-1" d="M1077.17,768.16H1165a25.51,25.51,0,0,1,25.51,25.51H1077.17V768.16Z"/><path class="cls-1" d="M515.91,595.29H425.2a25.51,25.51,0,0,0-25.51,25.51h0V768.16h0a25.51,25.51,0,0,0,25.51,25.51h90.71a25.51,25.51,0,0,0,25.51-25.51h0V620.76h0a25.51,25.51,0,0,0-25.51-25.51h0ZM503.15,768.16H438a12.76,12.76,0,0,1-12.76-12.76h0V633.57A12.76,12.76,0,0,1,438,620.8h65.2A12.76,12.76,0,0,1,516,633.57h0V755.46a12.76,12.76,0,0,1-12.81,12.71Z"/></svg>