<svg id="Layer_1" data-name="Layer 1" xmlns="http://www.w3.org/2000/svg" viewBox="0 0 1388.98 1388.98"><defs><style>.cls-1{fill:#3155a6;}.cls-2{fill:#fff;}</style></defs><title>Artboard 1</title><rect class="cls-1" width="1388.98" height="1388.98"/><path class="cls-2" d="M836.22,198.43V425.2H779.53V368.51a28.35,28.35,0,0,0-28.35-28.35h0v85H609.45v-85h0A28.34,28.34,0,0,0,581.1,368.5V538.58H524.41V226.77H779.53a28.35,28.35,0,0,0-28.35-28.35H496.06V793.7h28.35V566.93H581.1v85a28.35,28.35,0,0,0,28.35,28.35h0V566.93H751.18V680.32h0A28.35,28.35,0,0,0,779.53,652V453.55h56.69V765.36H581.1a28.35,28.35,0,0,0,28.35,28.35H864.57V198.43H836.22Zm-85,340.16H609.45v-85H751.18Z"/><path class="cls-2" d="M198.43,992.13h0a25.51,25.51,0,0,1,25.51,25.51v172.91a0,0,0,0,1,0,0H198.43a0,0,0,0,1,0,0V992.13A0,0,0,0,1,198.43,992.13Z"/><path class="cls-2" d="M340.16,992.13h0a0,0,0,0,1,0,0v198.43a0,0,0,0,1,0,0H314.65a0,0,0,0,1,0,0V1017.64A25.51,25.51,0,0,1,340.16,992.13Z"/><rect class="cls-2" x="198.43" y="1072.24" width="141.73" height="25.51"/><path class="cls-2" d="M714.33,992.13H600.95v198.43h25.51v-95.64h34A25.51,25.51,0,0,0,686,1069.41H626.46v-51.77h62.36A25.51,25.51,0,0,0,714.33,992.13Z"/><path class="cls-2" d="M870.24,992.13H756.85v198.43h25.51v-95.64h34a25.51,25.51,0,0,0,25.51-25.51H782.36v-51.77h62.36A25.51,25.51,0,0,0,870.24,992.13Z"/><rect class="cls-2" x="912.76" y="992.13" width="25.51" height="198.43"/><path class="cls-2" d="M912.76,1069.41h85a0,0,0,0,1,0,0v0a25.51,25.51,0,0,1-25.51,25.51H912.76a0,0,0,0,1,0,0v-25.51A0,0,0,0,1,912.76,1069.41Z"/><path class="cls-2" d="M912.76,992.13h113.39a0,0,0,0,1,0,0v0a25.51,25.51,0,0,1-25.51,25.51H912.76a0,0,0,0,1,0,0V992.13A0,0,0,0,1,912.76,992.13Z"/><path class="cls-2" d="M912.76,1165h87.87a25.51,25.51,0,0,1,25.51,25.51v0a0,0,0,0,1,0,0H912.76a0,0,0,0,1,0,0V1165A0,0,0,0,1,912.76,1165Z"/><rect class="cls-2" x="1077.17" y="992.13" width="25.51" height="198.43"/><path class="cls-2" d="M1077.17,1069.41h85a0,0,0,0,1,0,0v0a25.51,25.51,0,0,1-25.51,25.51h-59.53a0,0,0,0,1,0,0v-25.51A0,0,0,0,1,1077.17,1069.41Z"/><path class="cls-2" d="M1077.17,992.13h113.39a0,0,0,0,1,0,0v0a25.51,25.51,0,0,1-25.51,25.51h-87.87a0,0,0,0,1,0,0V992.13A0,0,0,0,1,1077.17,992.13Z"/><path class="cls-2" d="M1077.17,1165H1165a25.51,25.51,0,0,1,25.51,25.51v0a0,0,0,0,1,0,0H1077.17a0,0,0,0,1,0,0V1165A0,0,0,0,1,1077.17,1165Z"/><path class="cls-2" d="M515.91,992.13H425.2a25.51,25.51,0,0,0-25.51,25.51h0V1165h0a25.51,25.51,0,0,0,25.51,25.51h90.71A25.51,25.51,0,0,0,541.42,1165h0v-147.4h0a25.51,25.51,0,0,0-25.51-25.51ZM503.15,1165H438a12.76,12.76,0,0,1-12.76-12.76V1030.4A12.76,12.76,0,0,1,438,1017.64h65.2a12.76,12.76,0,0,1,12.76,12.76v121.89A12.76,12.76,0,0,1,503.15,1165Z"/></svg>