<svg width="17" height="18" viewBox="0 0 17 18" xmlns="http://www.w3.org/2000/svg"><path d="M8.237 1.029a3.883 3.883 0 0 0-3.88 3.878c0 2.14 1.741 3.88 3.88 3.88s3.879-1.74 3.879-3.88a3.883 3.883 0 0 0-3.88-3.878m0 8.786A4.913 4.913 0 0 1 3.33 4.907 4.913 4.913 0 0 1 8.237 0a4.913 4.913 0 0 1 4.907 4.907 4.913 4.913 0 0 1-4.907 4.908"/><path d="M1.047 16.509h14.38c-.265-3.735-3.388-6.694-7.19-6.694-3.802 0-6.925 2.959-7.19 6.694m14.912 1.028H.514A.514.514 0 0 1 0 17.023c0-4.541 3.695-8.237 8.236-8.237 4.543 0 8.238 3.696 8.238 8.237 0 .284-.23.514-.515.514"/></svg>