<svg width="20" height="18" viewBox="0 0 20 18" xmlns="http://www.w3.org/2000/svg"><path d="M16.115 7.992c-.251 0-.455-.224-.455-.499V.997H4.08v6.496c0 .275-.204.499-.455.499s-.455-.224-.455-.499V.5c0-.276.204-.499.455-.499h12.49c.25 0 .454.223.454.499v6.994c0 .275-.203.499-.454.499"/><path d="M9.87 13.776a.446.446 0 0 1-.294-.111L.16 5.418a.48.48 0 0 1-.132-.52.456.456 0 0 1 .427-.307h3.17c.251 0 .455.21.455.47 0 .258-.204.469-.455.469H1.693L9.87 12.69l8.177-7.161h-1.932a.462.462 0 0 1-.455-.47c0-.26.204-.469.455-.469h3.17c.191 0 .361.122.427.307a.48.48 0 0 1-.132.52l-9.416 8.247a.446.446 0 0 1-.294.111"/><path d="M.455 17.14A.447.447 0 0 1 0 16.702V5.029c0-.242.204-.438.455-.438h3.17c.251 0 .455.196.455.438a.446.446 0 0 1-.455.439H.909v10.795h17.922V5.468h-2.716a.447.447 0 0 1-.455-.439c0-.242.204-.438.455-.438h3.17c.251 0 .455.196.455.438v11.673a.447.447 0 0 1-.455.438H.455z"/><path d="M13.073 4.7H6.667a.462.462 0 0 1-.454-.47c0-.258.203-.469.454-.469h6.406c.25 0 .454.21.454.47 0 .259-.203.469-.454.469M12.802 7.985H6.938c-.4 0-.725-.21-.725-.47 0-.258.324-.468.725-.468h5.864c.4 0 .725.21.725.469s-.324.47-.725.47"/></svg>