<svg width="18" height="18" viewBox="0 0 18 18" xmlns="http://www.w3.org/2000/svg"><path fill="none" d="M-2-1h22v20H-2z"/><path d="M7.096 1.56a5.794 5.794 0 0 0-4.11 1.701 5.82 5.82 0 0 0 0 8.222 5.776 5.776 0 0 0 4.11 1.703 5.777 5.777 0 0 0 4.111-1.703 5.82 5.82 0 0 0 0-8.222 5.795 5.795 0 0 0-4.11-1.7m0 12.91a7.052 7.052 0 0 1-5.02-2.08c-2.769-2.767-2.769-7.271 0-10.039 2.767-2.769 7.271-2.768 10.039 0s2.768 7.272 0 10.04a7.053 7.053 0 0 1-5.02 2.08" mask="url(#mask-2)" transform="translate(0 .153)"/><g><path d="M5.51 6.429a.64.64 0 0 1-.455-.189L.277 1.462a.643.643 0 1 1 .909-.91l4.779 4.779a.644.644 0 0 1-.455 1.098" mask="url(#mask-4)" transform="translate(11.143 11.296)"/></g></svg>